<?xml version="1.0" encoding="utf-8"?>
<!-- Generator: Adobe Illustrator 23.0.6, SVG Export Plug-In . SVG Version: 6.00 Build 0)  -->
<svg version="1.1" id="Layer_1" xmlns="http://www.w3.org/2000/svg" xmlns:xlink="http://www.w3.org/1999/xlink" x="0px" y="0px"
	 viewBox="0 0 512 512" style="enable-background:new 0 0 512 512;" xml:space="preserve">
<style type="text/css">
	.st0{fill:#FFFFFF;stroke:#1A1A1A;stroke-miterlimit:10;}
</style>
<path class="st0" d="M371.5,337.8l-82.2-82.2l82.2-82.2c9.1-9.1,9.1-23.8,0-33c-9.1-9.1-23.8-9.1-33,0l-82.2,82.2l-82.2-82.2
	c-9.1-9.1-23.8-9.1-33,0c-9.1,9.1-9.1,23.8,0,33l82.2,82.2l-82.2,82.2c-9.1,9.1-9.1,23.8,0,33c9.1,9.1,23.8,9.1,33,0l82.2-82.2
	l82.2,82.2c9.1,9.1,23.8,9.1,33,0C380.6,361.6,380.6,346.9,371.5,337.8z"/>
</svg>
