<?xml version="1.0" encoding="utf-8"?>
<!-- Generator: Adobe Illustrator 23.0.6, SVG Export Plug-In . SVG Version: 6.00 Build 0)  -->
<svg version="1.1" id="Layer_1" xmlns="http://www.w3.org/2000/svg" xmlns:xlink="http://www.w3.org/1999/xlink" x="0px" y="0px"
	 viewBox="0 0 512 512" style="enable-background:new 0 0 512 512;" xml:space="preserve">
<style type="text/css">
	.st0{display:none;}
	.st1{display:inline;}
	.st2{fill:none;stroke:#000000;stroke-width:16;stroke-linecap:round;stroke-linejoin:round;stroke-miterlimit:10;}
	.st3{fill:#FFFFFF;stroke:#1A1A1A;stroke-miterlimit:10;}
</style>
<g id="Layer" class="st0">
	<g class="st1">
		<polyline class="st2" points="89,386 424,386 424,386 		"/>
		<polyline class="st2" points="89,257 424,257 424,257 		"/>
		<polyline class="st2" points="89,127 424,127 424,127 		"/>
	</g>
</g>
<path class="st3" d="M395.8,171.4h-279c-12.9,0-23.3-10.4-23.3-23.3l0,0c0-12.9,10.4-23.3,23.3-23.3h279c12.9,0,23.3,10.4,23.3,23.3
	l0,0C419.1,161,408.7,171.4,395.8,171.4z"/>
<path class="st3" d="M395.5,274.4h-279c-12.9,0-23.3-10.4-23.3-23.3l0,0c0-12.9,10.4-23.3,23.3-23.3h279c12.9,0,23.3,10.4,23.3,23.3
	l0,0C418.8,264,408.3,274.4,395.5,274.4z"/>
<path class="st3" d="M395.5,377.4h-279c-12.9,0-23.3-10.4-23.3-23.3l0,0c0-12.9,10.4-23.3,23.3-23.3h279c12.9,0,23.3,10.4,23.3,23.3
	l0,0C418.8,366.9,408.3,377.4,395.5,377.4z"/>
</svg>
